<svg viewBox="0 0 146.47 58.19" xmlns="http://www.w3.org/2000/svg"><path d="m22.08 0h.6v20.14h-.6zm2.73 20.33.58.1 1.17-6.61-.59-.1zm5.5-5.45-.55-.2-2.3 6.32.56.21zm.16 7.51 3.36-5.82-.52-.29-3.31 5.81zm2.21 1.61 4.32-5.15-.45-.38-4.32 5.15zm1.89 2 5.14-4.31-.38-.46-5.14 4.32zm1.52 2.27 5.82-3.36-.3-.51-5.81 3.32zm1.11 2.5 6.31-2.3-.2-.56-6.31 2.26zm.66 2.65 6.61-1.17-.1-.58-6.61 1.16zm.14 2.09v.59h6.72v-.59zm-.28 3.31 6.65 1.18.1-.58-6.61-1.16zm-.72 2.62 6.31 2.3.2-.56-6.31-2.29zm-1.2 2.46 5.81 3.35.3-.51-5.82-3.36zm-1.61 2.2 5.14 4.32.38-.46-5.14-4.31zm-2 1.9 4.32 5.14.45-.38-4.31-5.14zm-2.19 1.52 3.35 5.82.52-.3-3.36-5.82zm-2.5 1.11 2.3 6.31.55-.21-2.35-6.3zm-2.65.65 1.15 6.62.59-.11-1.17-6.61zm-2.73 6.91h.6v-6.72h-.6zm-3.88-.4.58.11 1.18-6.62-.58-.1zm-3.75-1.06.55.21 2.3-6.31-.56-.2zm-.16-7.51-3.4 5.78.52.3 3.35-5.82zm-2.21-1.6-4.35 5.14.45.38 4.32-5.14zm-1.89-2-5.18 4.38.38.46 5.14-4.32zm-1.57-2.24-5.81 3.36.3.51 5.85-3.35zm-1.1-2.49-6.31 2.29.2.56 6.31-2.3zm-.66-2.65-6.61 1.16.1.58 6.61-1.16zm-.19-2.73h-6.71v.59h6.71zm.29-2.72-6.61-1.16-.1.58 6.61 1.17zm.76-2.62-6.31-2.3-.2.56 6.31 2.3zm1.24-2.45-5.85-3.36-.3.51 5.81 3.36zm1.61-2.21-5.18-4.32-.38.46 5.14 4.35zm2-1.89-4.39-5.15-.45.38 4.31 5.15zm2.26-1.53-3.35-5.81-.52.29 3.36 5.82zm-.35-7.21 2.29 6.31.49-.19-2.3-6.32zm3.75-1.06 1.17 6.61.58-.1-1.17-6.61z"/><path d="m70.79 30.14v11.59c0 .09-.05.16-.19.16a.33.33 0 0 1 -.26-.14c-.87-1.06-8.07-9.75-8.07-9.75v9.54c0 .14 0 .15-.13.15h-.71c-.1 0-.14 0-.14-.17v-11.58a.14.14 0 0 1 .16-.14.33.33 0 0 1 .26.12c1.15 1.25 8.11 9.76 8.11 9.76v-9.59c0-.14 0-.15.16-.15h.68c.12 0 .13.06.13.2zm18.28 11.36c.07.14.05.21-.11.21h-.74c-.11 0-.13 0-.2-.14l-1.28-2.69h-7.11l-1.25 2.62c-.08.16-.12.21-.29.21h-.61c-.21 0-.24 0-.14-.24.63-1.3 4.62-9.54 5.72-11.71 0-.07 0-.12.14-.12s.1.05.13.12c1.1 2.24 5.04 10.24 5.74 11.74zm-2.71-3.45s-1.69-3.58-2.78-5.86a6.16 6.16 0 0 0 -.38-.74 4.15 4.15 0 0 0 -.39.73c-1.07 2.31-2.81 5.87-2.81 5.87zm19-8.11h-.73c-.06 0-.09 0-.16.19l-4.41 9.87-4.62-10c0-.09-.09-.1-.19-.1h-.73c-.11 0-.12 0-.07.15s5.31 11.48 5.42 11.69.1.19.19.19.12 0 .19-.19 5.11-11.53 5.11-11.53c.1-.27.1-.27-.05-.27zm16 8.59c0 2.19-1.32 3.18-3.82 3.18h-5.32c-.1 0-.14-.05-.14-.15v-11.45c0-.14.05-.17.18-.17h4.5c2.25 0 3.92 1.09 3.92 3.05a2.47 2.47 0 0 1 -1.7 2.7 2.84 2.84 0 0 1 2.29 2.84zm-8.36-3.17h4.11c1.77 0 2.54-.75 2.54-2.3 0-1.34-1.06-2.26-2.83-2.26h-3.82zm7.31 3.17c0-1.39-1.17-2.34-3-2.34h-4.31v4.66h4.34c1.93 0 2.94-.77 2.94-2.32zm9.83-8.59h-.64c-.16 0-.2 0-.2.2v11.42c0 .14 0 .15.18.15h.62c.16 0 .18 0 .18-.15v-11.42c-.03-.14-.07-.2-.17-.2zm16.22 0h-8.77c-.12 0-.14 0-.14.17v.57c0 .11 0 .12.12.12h3.91v10.72c0 .19 0 .19.17.19h.68c.12 0 .12 0 .12-.15v-10.76h3.89c.16 0 .16 0 .16-.12v-.57c-.03-.11-.03-.17-.17-.17z"/></svg>